Coordinates
version=1
nRows=12
nColumns=38
inDegrees=yes

Units are S.I. units (second, meters, Newtons, ...)
Angles are in degrees.

endheader
time	pelvis_tilt	pelvis_list	pelvis_rotation	pelvis_tx	pelvis_ty	pelvis_tz	hip_flexion_r	hip_adduction_r	hip_rotation_r	knee_angle_r	ankle_angle_r	subtalar_angle_r	mtp_angle_r	hip_flexion_l	hip_adduction_l	hip_rotation_l	knee_angle_l	ankle_angle_l	subtalar_angle_l	mtp_angle_l	lumbar_extension	lumbar_bending	lumbar_rotation	arm_flex_r	arm_add_r	arm_rot_r	elbow_flex_r	pro_sup_r	wrist_flex_r	wrist_dev_r	arm_flex_l	arm_add_l	arm_rot_l	elbow_flex_l	pro_sup_l	wrist_flex_l	wrist_dev_l
      2.58000000	     -9.41327607	     -2.42347954	     -4.97629847	      0.02423611	      0.89739016	      2.60913062	     26.71621325	      6.08073731	     -0.86421041	     -7.65575414	     -1.48547252	      0.00000000	      0.00000000	     -0.78756273	     -1.82084528	      3.09955547	    -48.24241296	    -28.41045824	      0.00000000	      0.00000000	      0.63528918	      1.38609495	     -5.49643541	    -35.51524104	    -17.02981096	      5.33968239	    122.43013820	     86.92876331	      0.00000000	      0.00000000	      1.26646749	    -15.19423516	     21.70288308	    127.58905856	    102.50619833	      0.00000000	      0.00000000
      2.59000000	     -8.90133324	     -2.46810708	     -4.90080110	      0.02508697	      0.89001071	      2.61001899	     26.27638473	      6.16011814	      0.90909957	     -9.02237400	     -1.62119299	      0.00000000	      0.00000000	      0.36394642	     -2.02285345	      2.78372013	    -52.91848887	    -27.02266877	      0.00000000	      0.00000000	      0.17468450	      1.50647423	     -5.07802402	    -34.96367069	    -16.89014859	      5.56235526	    122.02647323	     87.17583373	      0.00000000	      0.00000000	      1.32772682	    -14.87796885	     22.58575093	    127.16718999	    101.93034848	      0.00000000	      0.00000000
      2.60000000	     -8.30029811	     -2.66555144	     -4.84115981	      0.02611954	      0.88157706	      2.61105094	     25.86712425	      6.36981064	      2.18492139	    -10.94190304	     -1.75083798	      0.00000000	      0.00000000	      1.48003666	     -2.47008070	      2.36934935	    -57.69173819	    -25.67119779	      0.00000000	      0.00000000	     -0.36800523	      1.78005811	     -4.65812146	    -34.24363916	    -16.85425722	      5.94784652	    121.57856326	     87.33062986	      0.00000000	      0.00000000	      1.30758963	    -14.57838062	     23.38429800	    126.77866944	    101.33430354	      0.00000000	      0.00000000
      2.61000000	     -7.60114510	     -3.08736183	     -4.81049305	      0.02707402	      0.87220856	      2.61233053	     25.65748814	      6.83896774	      2.72346299	    -13.66533578	     -1.57985682	      0.00000000	      0.00000000	      2.58247601	     -3.25270492	      1.86802406	    -62.56426783	    -24.29788215	      0.00000000	      0.00000000	     -1.07804012	      2.26951856	     -4.18406886	    -33.31171632	    -16.92502997	      6.48526903	    121.08376561	     87.35045920	      0.00000000	      0.00000000	      1.26569084	    -14.30522209	     24.06560212	    126.41924846	    100.74703619	      0.00000000	      0.00000000
      2.62000000	     -6.80844137	     -3.79433473	     -4.82122490	      0.02727358	      0.86244660	      2.61385577	     25.79560510	      7.71594712	      2.56125234	    -17.43682438	     -0.75659673	      0.00000000	      0.00000000	      3.72388963	     -4.44926573	      1.34095352	    -67.54744657	    -22.86950591	      0.00000000	      0.00000000	     -2.06174628	      3.02676703	     -3.58855154	    -32.10037747	    -17.10460089	      7.16883965	    120.52519487	     87.21323719	      0.00000000	      0.00000000	      1.27058016	    -14.06015342	     24.58159189	    126.06506328	    100.18981513	      0.00000000	      0.00000000
      2.63000000	     -5.95065806	     -4.81614679	     -4.89646234	      0.02615996	      0.85275844	      2.61562927	     26.34667251	      9.06724495	      1.99453398	    -22.28787096	      0.95108347	      0.00000000	      0.00000000	      4.96608447	     -6.08549446	      0.86678979	    -72.62828310	    -21.38489779	      0.00000000	      0.00000000	     -3.33724601	      4.06343784	     -2.82155131	    -30.54108011	    -17.39995920	      8.00956067	    119.87277526	     86.93489068	      0.00000000	      0.00000000	      1.34297461	    -13.83032173	     24.88354033	    125.69431195	     99.67546746	      0.00000000	      0.00000000
      2.64000000	     -5.10278943	     -6.11609114	     -5.07823113	      0.02391094	      0.84299656	      2.61780285	     27.25263802	     10.82868104	      1.42770122	    -27.87586040	      3.50960853	      0.00000000	      0.00000000	      6.37320247	     -8.09222876	      0.48773721	    -77.72904047	    -19.86604284	      0.00000000	      0.00000000	     -4.76288212	      5.33177455	     -1.87087487	    -28.59507657	    -17.82659762	      9.03725283	    119.07876935	     86.57854747	      0.00000000	      0.00000000	      1.40578285	    -13.59287661	     24.94722573	    125.29387687	     99.21153950	      0.00000000	      0.00000000
      2.65000000	     -4.41144736	     -7.56055575	     -5.41774820	      0.02112429	      0.83299014	      2.62018599	     28.31902306	     12.84348682	      1.17689252	    -33.50644633	      6.61786726	      0.00000000	      0.00000000	      8.02851075	    -10.29108393	      0.18643456	    -82.68116107	    -18.33930869	      0.00000000	      0.00000000	     -6.07787258	      6.72917718	     -0.76876173	    -26.27114139	    -18.39747416	     10.29125208	    118.07380217	     86.24847635	      0.00000000	      0.00000000	      1.29150838	    -13.33325669	     24.78522550	    124.84530136	     98.80286366	      0.00000000	      0.00000000
      2.66000000	     -4.05207453	     -8.95382889	     -5.94248701	      0.01849522	      0.82351029	      2.62219689	     29.25656287	     14.89650316	      1.34449710	    -38.36487215	      9.84681184	      0.00000000	      0.00000000	     10.02257678	    -12.43055408	     -0.07583017	    -87.25323616	    -16.81860681	      0.00000000	      0.00000000	     -7.03356013	      8.11642998	      0.41173736	    -23.61871238	    -19.09493755	     11.80283858	    116.79068152	     86.06733440	      0.00000000	      0.00000000	      0.82365035	    -13.06213073	     24.43607759	    124.31802018	     98.44836225	      0.00000000	      0.00000000
      2.67000000	     -4.10404394	    -10.11321154	     -6.60294153	      0.01647544	      0.81590052	      2.62347357	     29.77007464	     16.72123314	      1.81802956	    -41.84112682	     12.81819791	      0.00000000	      0.00000000	     12.38490651	    -14.25380141	     -0.29385823	    -91.23700276	    -15.30085267	      0.00000000	      0.00000000	     -7.52023595	      9.33806789	      1.56493781	    -20.70994981	    -19.84536911	     13.57424083	    115.21991474	     86.14243308	      0.00000000	      0.00000000	     -0.07833267	    -12.81371662	     23.94594907	    123.69186763	     98.13089151	      0.00000000	      0.00000000
      2.68000000	     -4.44614833	    -10.91941241	     -7.23594283	      0.01499468	      0.81072579	      2.62407560	     29.65125481	     18.04405128	      2.37055216	    -43.76561100	     15.32179018	      0.00000000	      0.00000000	     15.02720386	    -15.55355419	     -0.39506712	    -94.52631674	    -13.77507055	      0.00000000	      0.00000000	     -7.60983542	     10.24786633	      2.56592994	    -17.63025111	    -20.52709980	     15.55505596	    113.45700998	     86.53139934	      0.00000000	      0.00000000	     -1.34707757	    -12.62852661	     23.35783757	    122.99136594	     97.80565979	      0.00000000	      0.00000000
      2.69000000	     -4.80274765	    -11.32740986	     -7.60242786	      0.01374135	      0.80763455	      2.62421837	     28.84187678	     18.67236962	      2.79111289	    -44.41709574	     17.32826146	      0.00000000	      0.00000000	     17.76730680	    -16.19643093	     -0.28387228	    -97.12737472	    -12.23716546	      0.00000000	      0.00000000	     -7.49992448	     10.74334871	      3.29469280	    -14.48052603	    -21.01845254	     17.62293404	    111.69716164	     87.21887188	      0.00000000	      0.00000000	     -2.80719818	    -12.53807035	     22.71038825	    122.29512078	     97.39782088	      0.00000000	      0.00000000
